<svg viewBox="0 0 1200 1200" xmlns="http://www.w3.org/2000/svg">
    <defs>
        <style>
            .cls-1{fill:#ffffa4;}.cls-2{fill:#23e5d2;}.cls-3{fill:#ffd9c0;}.cls-4{fill:#333;}.cls-5{fill:#1e1e1e;}.cls-6{fill:#fff;}.cls-7{fill:#ff704a;}.cls-8{fill:#dbb39e;}
        </style>
    </defs>
    <title>6 (3)</title>
    <g id="图层_2">
        <g id="_6">
            <g id="_编组_">
                <path d="M1200,0V1200H1027.22v-1a15,15,0,0,0,15-15v-6.5h135.21V22.54H22.54V1177.46H134.13c-.72,2.37-1.43,4.7-2.11,7.07a15,15,0,0,0,4.51,15.47H0V0Z"></path>
                <path d="M1177.46,22.54V1177.46H1042.25V1006.15a15,15,0,0,0-14.61-15v0L1027,950a15.09,15.09,0,0,0-3.31-9.24l26.07-30.72A54.65,54.65,0,0,0,1062,883.55l10.25-62a97.55,97.55,0,0,0,.11-30.65l-.26-1.65-1.35-8.68a24.22,24.22,0,0,0-15.93-19.12l-5.14-1.8a24.06,24.06,0,0,0-14.65-.38,21.52,21.52,0,0,0-3.35,1.2,27.69,27.69,0,0,0-36.54-15.92l18.29-68,.26-1.31c1.84-15.36-8.18-29.71-22.87-32.64a28.95,28.95,0,0,0-34.48,24.86l-13.22,51.8L924.69,668c-4.92-13.64-18.9-21.56-32.57-18.44a27.72,27.72,0,0,0-20,36L901.47,771l.12.37a4.23,4.23,0,0,1,.33,1.06c-.56.41-1.57,1-2.36,1.46a45.35,45.35,0,0,0-5.6,3.64c-6.68,5.34-10.29,12.06-12.43,23.25-1.77,9.06-3.27,24,.53,59.88.15,1.24.45,4.24,1.2,8a84.22,84.22,0,0,0,2.33,9.36,105.29,105.29,0,0,0,6,15c3.11,6.16,12.39,21.78,25.69,42.7a15.12,15.12,0,0,0-4.32,7.93l-8.27,41.58a15.05,15.05,0,0,0-11.94,10.18L833,1177.46H778.62a14.64,14.64,0,0,0-2-6.16c-40.83-69-51.72-132.59-53.49-144.61a3.77,3.77,0,0,1,0-.67v-.3l5.67-92a35,35,0,0,0-43.94-35.95,93.3,93.3,0,0,1-83-17.65l9.43-34L669.5,860.6a101.14,101.14,0,0,0,24.49,3,103.65,103.65,0,0,0,90-52.51c2-3.49,3.94-7.13,5.89-10.85,6.31-12.13,12.81-24.64,18.41-41.69C822.34,715.8,823.12,692,824.21,659c.34-9.65.64-19.65,1.36-31.36.63-10.71,9.91-24.95,14.76-31.37h0c10.07-5.71,39.07-24.38,42.6-51.34.41-3.05.9-6.05,1.42-9.13,6.28,4.54,12.29,7.36,18.9,7.1,6.91-.3,16.67-4.17,23.85-21,16.22-38.12-.42-92.66-5.9-108.47-.75-2.18-1.65-4.66-2.63-7.4-2.93-8.23-10.59-29.71-13.07-42.45a66.9,66.9,0,0,0,12.25,1h.07c9.35,0,22.31-3.95,27.94-15,6.88-13.52-2-27.57-4.95-32.3-25.92-41-37.75-59.72-47.07-69.15-11-11.12-36.92-37.18-68.43-53.86-75.12-39.7-160.72-16.68-197.3-3.42-96.72-40.75-204.78-27.23-276.14,34.74-44.7,38.84-73.69,95.93-81.58,160.8C260.93,463.62,276.1,519.58,313,544a8.11,8.11,0,0,0,.76.49,58.6,58.6,0,0,0-12.29,51.87l12.06,49.17a45.93,45.93,0,0,0,48.71,35l8.83-.75A27.54,27.54,0,0,1,401,707.91l-2.4,96.57-49.73-7.74a34.79,34.79,0,0,0-38.73,24.16L288.23,891a4.4,4.4,0,0,1-.9,1.62c-15.13,18-29.59,36.88-43,56.11-48.15,69-85.19,146-110.16,228.71H22.54V22.54Zm-68.81,196.4a38.41,38.41,0,0,0,3.57-24.07c-6.38-29.11-51.72-44.66-78-39.37-41.92,8.45-70.43,73.55-67.8,154.72a5.64,5.64,0,0,0,5.64,5.44h.18a5.63,5.63,0,0,0,5.45-5.82c-2.78-84.81,28.21-137.13,58.78-143.29,23-4.62,60.29,10.51,64.72,30.72a27.23,27.23,0,0,1-2.52,16.41c-12.47,23.67-63.51,18.79-64,18.71l-1.17,11.23C1036,243.85,1092.69,249.26,1108.65,218.94ZM243.31,866.05a5.61,5.61,0,0,0,5.49-5.75c-.27-12.47-3.42-36.66-21.64-58.67a100.06,100.06,0,0,0-8.82-9.32,105.15,105.15,0,0,0,5.85-11.08c15.78-35,8.68-59-.07-73-1.62-2.59-16.79-25.69-44.36-29.41a57.92,57.92,0,0,0-7.51-.52c-36.1,0-68.47,34.67-76.25,68.81,0,.07,0,.11,0,.19C88.15,781.83,101,826.49,132.62,838a45.61,45.61,0,0,0,16,2.82c24.15,0,47.85-18.14,63.4-39a86,86,0,0,1,6.5,7c16,19.38,18.81,40.76,19.08,51.72a5.59,5.59,0,0,0,5.59,5.53ZM193,307.66c32-8.3,56.3-37.26,55.85-56.6a27.73,27.73,0,0,0-10.22-21.34c-23.14-19.53-79.29-11.68-81.65-11.34a5.64,5.64,0,0,0,1.61,11.16c14.8-2.15,56.79-4.74,72.75,8.78a16.6,16.6,0,0,1,6.24,13c.34,13.26-19.46,38.16-47.4,45.41-32,8.3-68.44-7.62-84.77-37-24.68-44.44,12.5-91.46,14.08-93.45,25.65-31.86,71-43.95,115.57-30.8a5.64,5.64,0,0,0,3.19-10.82c-48.94-14.43-99-.87-127.55,34.55-1.76,2.22-43.46,55-15.14,106,15.4,27.72,46.43,45,77.42,45A80.42,80.42,0,0,0,193,307.66Z"
                      class="cls-1"></path>
                <path d="M1112.22,194.87a38.41,38.41,0,0,1-3.57,24.07c-16,30.32-72.67,24.91-75.12,24.68l1.17-11.23c.49.08,51.53,5,64-18.71a27.23,27.23,0,0,0,2.52-16.41c-4.43-20.21-41.77-35.34-64.72-30.72-30.57,6.16-61.56,58.48-58.78,143.29a5.63,5.63,0,0,1-5.45,5.82h-.18a5.64,5.64,0,0,1-5.64-5.44c-2.63-81.17,25.88-146.27,67.8-154.72C1060.5,150.21,1105.84,165.76,1112.22,194.87Z"
                      class="cls-2"></path>
                <path d="M1072.37,790.85a97.55,97.55,0,0,1-.11,30.65l-10.25,62a54.65,54.65,0,0,1-12.25,26.52l-26.07,30.72a14.58,14.58,0,0,0-11.94-5.52A15,15,0,0,0,997,950.52l.08,5-6.35-.22a9.34,9.34,0,0,1,2.18-7.21l42.59-50.22a35.8,35.8,0,0,0,8-17.39l10.21-62a68.47,68.47,0,0,0,.87-7.4l11.34-16.53a5.75,5.75,0,0,0,.87-4.51l5.33-.82Z"></path>
                <path d="M1070.76,780.52l1.35,8.68-5.33.82a5.8,5.8,0,0,0-2.33-3.3,5.59,5.59,0,0,0-7.82,1.46l-3,4.36-1.43-9.13a5.42,5.42,0,0,0-3.57-4.28l-5.14-1.8a5.43,5.43,0,0,0-5.75,1.35,14.07,14.07,0,0,1-2.44,2l6.57-9.09a5.62,5.62,0,0,0-5.86-8.79l-1-3.61a24.06,24.06,0,0,1,14.65.38l5.14,1.8A24.22,24.22,0,0,1,1070.76,780.52Z"></path>
                <path d="M1066.78,790a5.75,5.75,0,0,1-.87,4.51l-11.34,16.53a79.19,79.19,0,0,0-.75-17.32l-.19-1.2,3-4.36a5.59,5.59,0,0,1,7.82-1.46A5.8,5.8,0,0,1,1066.78,790Z"></path>
                <path d="M1053.82,793.74a79.19,79.19,0,0,1,.75,17.32L1025.08,854a19.56,19.56,0,0,1-16.22,8.56,6.78,6.78,0,0,1-.9,0,19.57,19.57,0,0,1-16.3-10l-8.61-15.25a15.48,15.48,0,0,0,7.67-6l5.22,3.8-.68.94,6.24,11a8.43,8.43,0,0,0,14.31.6l37.82-55.06Z"></path>
                <path d="M1025.08,854l29.49-42.93a68.47,68.47,0,0,1-.87,7.4l-10.21,62a35.8,35.8,0,0,1-8,17.39l-42.59,50.22a9.34,9.34,0,0,0-2.18,7.21l-41.77-1.28a9.24,9.24,0,0,0-1.46-6.27c-20.28-30.91-35.27-55.63-39.06-63.22a81.63,81.63,0,0,1-4.85-12,71.44,71.44,0,0,1-1.84-7.43c-.6-3.05-.86-5.38-1-6.46-3.94-37.64-1.65-49.81-.75-54.36,1.43-7.47,3.08-10,5.67-12a29,29,0,0,1,3.16-2c28.54,6.16,35.27,7,37.93,7a34.45,34.45,0,0,1,5.19.42,38,38,0,0,1,4,.79l10,3.86,13.74,5.38a3.85,3.85,0,0,1,2.48,3.64v11.12a4.53,4.53,0,0,1-4.5,4.54H959.8a10.73,10.73,0,0,0-8.93,16.68l13.29,19.87a5.62,5.62,0,0,0,4.7,2.52,5.54,5.54,0,0,0,3.11-.94,5.64,5.64,0,0,0,1.58-7.82l-12.77-19h16.87a15.13,15.13,0,0,0,5.4-1l8.61,15.25a19.57,19.57,0,0,0,16.3,10,6.78,6.78,0,0,0,.9,0A19.56,19.56,0,0,0,1025.08,854Z"
                      class="cls-3"></path>
                <path d="M1052.2,783.41l1.43,9.13-37.82,55.06a8.43,8.43,0,0,1-14.31-.6l-6.24-11,.68-.94,39.36-54.35a14.07,14.07,0,0,0,2.44-2,5.43,5.43,0,0,1,5.75-1.35l5.14,1.8A5.42,5.42,0,0,1,1052.2,783.41Z"
                      class="cls-3"></path>
                <path d="M1040.63,763.73a5.64,5.64,0,0,1,1.24,7.89l-6.57,9.09a12.61,12.61,0,0,1-13.82-.12L1032.75,765a5.56,5.56,0,0,1,3.26-2.18A5.67,5.67,0,0,1,1040.63,763.73Z"></path>
                <path d="M1042.25,1177.46v6.5a15,15,0,1,1-30,0v-6.5Z"></path>
                <path d="M1042.25,1006.15v171.31h-30V1008.93l10.48.34a.34.34,0,0,0,.19,0,5.63,5.63,0,0,0,5.59-5.48,5.41,5.41,0,0,0-2.81-5,14.77,14.77,0,0,0,2-7.66A15,15,0,0,1,1042.25,1006.15Z"></path>
                <path d="M1035,759.22l1,3.61a5.56,5.56,0,0,0-3.26,2.18l-11.27,15.58a12.94,12.94,0,0,1-4.81-6.27l-2.29-6.57a9.53,9.53,0,0,0-3.31-4.81,9,9,0,0,0-10.29-.26L997.14,765l3.76-5.48a5.64,5.64,0,0,0-5.3-8.79l-.45-6.27a27.69,27.69,0,0,1,36.54,15.92A21.52,21.52,0,0,1,1035,759.22Z"></path>
                <path d="M1035.3,780.71l-39.36,54.35-5.22-3.8a15.56,15.56,0,0,0,2.7-8.82v-3.12l28.06-38.73a12.61,12.61,0,0,0,13.82.12Z"></path>
                <path d="M1025.65,998.82a5.41,5.41,0,0,1,2.81,5,5.63,5.63,0,0,1-5.59,5.48.34.34,0,0,1-.19,0l-10.48-.34v-2.59a1.89,1.89,0,0,0,.41,0h.27A14.86,14.86,0,0,0,1025.65,998.82Z"></path>
                <path d="M1027.64,991.16a14.77,14.77,0,0,1-2,7.66A5.4,5.4,0,0,0,1023,998l-8.27-.26a15,15,0,0,1,12.47-6.65A1.5,1.5,0,0,1,1027.64,991.16Z"></path>
                <path d="M1027.64,991.12v0a1.5,1.5,0,0,0-.42,0,15,15,0,0,0-12.47,6.65l-15.92-.52a14.94,14.94,0,0,1-1.2-5.64l-.42-24.79,11.76.38h.19a5.65,5.65,0,0,0,5.63-5.49,5.5,5.5,0,0,0-4.13-5.56l13-15.36A15.09,15.09,0,0,1,1027,950Z"></path>
                <path d="M1027.22,1199v1H847.09v-2.33a15.05,15.05,0,0,0,14.27-10.37l3.23-9.84H1012.2v6.5A15,15,0,0,0,1027.22,1199Z"></path>
                <path d="M1023,998a5.4,5.4,0,0,1,2.63.79,14.86,14.86,0,0,1-12.77,7.55h-.27a1.89,1.89,0,0,1-.41,0v-.19a15.06,15.06,0,0,1,2.55-8.38Z"></path>
                <path d="M1023.69,940.79l-13,15.36a3.83,3.83,0,0,0-1.31-.22L997,955.55l-.08-5a15,15,0,0,1,14.8-15.25A14.58,14.58,0,0,1,1023.69,940.79Z"></path>
                <path d="M1021.48,780.59l-28.06,38.73v-8a15.29,15.29,0,0,0-9.65-14.16L977,794.53,997.14,765l3.64-2.36a9,9,0,0,1,10.29.26,9.53,9.53,0,0,1,3.31,4.81l2.29,6.57A12.94,12.94,0,0,0,1021.48,780.59Z"
                      class="cls-3"></path>
                <path d="M1010.66,956.15a5.5,5.5,0,0,1,4.13,5.56,5.65,5.65,0,0,1-5.63,5.49H1009l-11.76-.38,0-3.72a8,8,0,0,0,2.81.49,9.47,9.47,0,0,0,7.18-3.3Z"></path>
                <path d="M998.83,997.25l15.92.52a15.06,15.06,0,0,0-2.55,8.38v.19A14.91,14.91,0,0,1,998.83,997.25Z"></path>
                <path d="M990.83,642.52c14.69,2.93,24.71,17.28,22.87,32.64l-.26,1.31-18.29,68,.45,6.27a5.56,5.56,0,0,0-4,2.44l-9.65,14.16h0a11.17,11.17,0,0,1-1.77-.94,14,14,0,0,1-6.57-13.63l.26-1.32,21.3-79.14c.38-5.37-3.12-10.44-8-11.42a10.26,10.26,0,0,0-8.15,1.81,10,10,0,0,0-4.06,7.21l-.26,1.43-19,74.93a11.46,11.46,0,0,1-22,1.8L907,674.33c-1.69-4.65-6.34-7.51-10.66-6.49a8.87,8.87,0,0,0-6.46,11.56l29.25,85.34a20.41,20.41,0,0,1,.61,14,19.65,19.65,0,0,1-.91,2.14c-3.15-.68-6.68-1.43-10.62-2.29a5.7,5.7,0,0,0-5.38,1.76l-8.9-2.82a45.35,45.35,0,0,1,5.6-3.64c.79-.45,1.8-1,2.36-1.46a4.23,4.23,0,0,0-.33-1.06l-.12-.37-29.33-85.49a27.72,27.72,0,0,1,20-36c13.67-3.12,27.65,4.8,32.57,18.44l18.44,51.23,13.22-51.8a28.95,28.95,0,0,1,34.48-24.86Z"></path>
                <polygon points="1012.2 1008.93 1012.2 1177.46 864.59 1177.46 920.89 1006 1012.2 1008.93"
                         class="cls-2"></polygon>
                <path d="M1012.2,1006.34v2.59L920.89,1006l.3-1a14.81,14.81,0,0,0,12-9.88l65.66,2.11A14.91,14.91,0,0,0,1012.2,1006.34Z"></path>
                <path d="M1010.66,956.15l-3.49,4.14a9.47,9.47,0,0,1-7.18,3.3,8,8,0,0,1-2.81-.49l-.15-7.55,12.32.38A3.83,3.83,0,0,1,1010.66,956.15Z"></path>
                <path d="M999.43,751.71a5.67,5.67,0,0,1,1.47,7.85L997.14,765l-1.88,1.24a13.94,13.94,0,0,1-13.33,1.09l9.65-14.16a5.56,5.56,0,0,1,4-2.44A5.64,5.64,0,0,1,999.43,751.71Z"></path>
                <path d="M998.83,997.25l-65.66-2.11a15,15,0,0,0,.57-2L939.33,965l57.88,1.8.42,24.79A14.94,14.94,0,0,0,998.83,997.25Z"
                      class="cls-4"></path>
                <path d="M997.18,963.1l0,3.72L939.33,965l.57-2.71a8.81,8.81,0,0,0,4.84-1.5,9.32,9.32,0,0,0,4.17-6.76l41.77,1.28a9.27,9.27,0,0,0,3.27,6A8.82,8.82,0,0,0,997.18,963.1Z"></path>
                <path d="M997,955.55l.15,7.55a8.82,8.82,0,0,1-3.23-1.76,9.27,9.27,0,0,1-3.27-6Z"></path>
                <path d="M997.14,765,977,794.53l-10.78-4.17,15.66-23h0a13.94,13.94,0,0,0,13.33-1.09Z"></path>
                <path d="M987.15,660.92c4.84,1,8.34,6.05,8,11.42l-21.3,79.14-.26,1.32a14,14,0,0,0,6.57,13.63,11.17,11.17,0,0,0,1.77.94l-15.66,23-6.54-2.55-.6-.19a47.65,47.65,0,0,0-5.56-1.13,50.17,50.17,0,0,0-6.72-.53c-1.62,0-7.48-.78-27.95-5.1a19.65,19.65,0,0,0,.91-2.14,20.41,20.41,0,0,0-.61-14L889.91,679.4a8.87,8.87,0,0,1,6.46-11.56c4.32-1,9,1.84,10.66,6.49l26.56,73.77a11.46,11.46,0,0,0,22-1.8l19-74.93.26-1.43a10,10,0,0,1,4.06-7.21A10.26,10.26,0,0,1,987.15,660.92Z"
                      class="cls-3"></path>
                <path d="M993.42,819.32v3.12a15.81,15.81,0,0,1-10.37,14.83l-1.16-2Z"></path>
                <path d="M993.42,811.32v8l-11.53,15.92,1.16,2a15.13,15.13,0,0,1-5.4,1H960.78l12.77,19a5.64,5.64,0,0,1-1.58,7.82,5.54,5.54,0,0,1-3.11.94,5.62,5.62,0,0,1-4.7-2.52l-13.29-19.87A10.73,10.73,0,0,1,959.8,827h17.85a4.53,4.53,0,0,0,4.5-4.54V811.32a3.85,3.85,0,0,0-2.48-3.64l-13.74-5.38a5.46,5.46,0,0,0,2.44.57,5.67,5.67,0,0,0,4.66-2.48l4-5.86,6.76,2.63A15.29,15.29,0,0,1,993.42,811.32Z"></path>
                <path d="M977,794.53l-4,5.86a5.67,5.67,0,0,1-4.66,2.48,5.46,5.46,0,0,1-2.44-.57,4.13,4.13,0,0,1-.75-.41,5.66,5.66,0,0,1-1.47-7.85l2.52-3.68Z"></path>
                <path d="M959.69,787.81l6.54,2.55L963.71,794a5.66,5.66,0,0,0,1.47,7.85,4.13,4.13,0,0,0,.75.41l-10-3.86a38,38,0,0,0-4-.79,34.45,34.45,0,0,0-5.19-.42c-2.66,0-9.39-.86-37.93-7,0,0,.07,0,.11-.08,3-1.72,7.4-4.24,10-9.27,20.47,4.32,26.33,5.07,27.95,5.1a50.17,50.17,0,0,1,6.72.53,47.65,47.65,0,0,1,5.56,1.13Z"></path>
                <path d="M947.45,947.78a9.24,9.24,0,0,1,1.46,6.27l-7.32-.22.86-4.36a15,15,0,0,0-25.16-13.79C904,914.76,894.71,899.14,891.6,893a105.29,105.29,0,0,1-6-15,84.22,84.22,0,0,1-2.33-9.36c-.75-3.79-1-6.79-1.2-8-3.8-35.84-2.3-50.82-.53-59.88,2.14-11.19,5.75-17.91,12.43-23.25l8.9,2.82a5.76,5.76,0,0,0-1.31,2.55,5.57,5.57,0,0,0,4.28,6.69c1,.23,2,.45,3,.64a29,29,0,0,0-3.16,2c-2.59,2-4.24,4.58-5.67,12-.9,4.55-3.19,16.72.75,54.36.12,1.08.38,3.41,1,6.46a71.44,71.44,0,0,0,1.84,7.43,81.63,81.63,0,0,0,4.85,12C912.18,892.15,927.17,916.87,947.45,947.78Z"></path>
                <path d="M941.59,953.83l7.32.22a9.32,9.32,0,0,1-4.17,6.76,8.81,8.81,0,0,1-4.84,1.5Z"></path>
                <path d="M940.84,317.24c3,4.73,11.83,18.78,4.95,32.3-5.63,11.08-18.59,15-27.94,15h-.07a66.9,66.9,0,0,1-12.25-1C908,376.29,915.67,397.77,918.6,406c1,2.74,1.88,5.22,2.63,7.4,5.48,15.81,22.12,70.35,5.9,108.47-7.18,16.87-16.94,20.74-23.85,21-6.61.26-12.62-2.56-18.9-7.1-.52,3.08-1,6.08-1.42,9.13-3.53,27-32.53,45.63-42.6,51.34.61-.82,1.17-1.5,1.62-2.06a15,15,0,0,0-1.8-21.15,2.67,2.67,0,0,0-.49-.38,112.16,112.16,0,0,0,2.21-14.5c5.75-5.29,10.52-11.41,11.27-17.16.83-6.12,1.88-12.17,2.93-18,.9-5,1.77-9.77,2.44-14.58,1.36-9.46,7.78-12.92,10.48-14s10-2.89,17.47,3.38c1.39,1.17,3.19,2.82,5.26,4.73,1.8,1.69,5,4.66,7.92,7.07,9.92-24.08.41-65.59-6.83-86.43-.72-2.07-1.58-4.47-2.52-7.14-14.91-41.73-20.1-62.5-11.31-75.27,9.32-15.29,21.79-10.71,24.15-9.62,4.7,2.11,7.25,3.12,13,3.27-.23-.34-.45-.71-.68-1.09-23.25-36.81-36-57.05-43-64.11-10.1-10.18-33.69-34-61.15-48.5-68.51-36.21-152-9.65-175.93-.67a21.27,21.27,0,0,1-16.15-.42c-87-37.74-184.15-26.55-247.59,28.55-39.1,34-64.46,84.29-71.44,141.72-7.85,64.42,2.89,111.44,29.41,129a51.34,51.34,0,0,0,6.5,3.61,21.16,21.16,0,0,1,7.73,6,5.6,5.6,0,0,0-6.57.38,5.66,5.66,0,0,0-.79,7.93c3.53,4.31,7.14,8.56,10.78,12.73a22.25,22.25,0,0,1-3.94,6.61l-6.54,7.62a28.51,28.51,0,0,0-6.08,25.36l12.05,49.17a16,16,0,0,0,17,12.16l8.83-.75A57.64,57.64,0,0,1,431,708.66l-2.63,105.51a14.08,14.08,0,0,1-.6,3.76,15.08,15.08,0,0,0-12.21-10.82l-17-2.63,2.4-96.57a27.54,27.54,0,0,0-29.86-28.13l-8.83.75a45.93,45.93,0,0,1-48.71-35l-12.06-49.17a58.6,58.6,0,0,1,12.29-51.87A8.11,8.11,0,0,1,313,544c-36.92-24.45-52.09-80.41-42.7-157.68,7.89-64.87,36.88-122,81.58-160.8,71.36-62,179.42-75.49,276.14-34.74,36.58-13.26,122.18-36.28,197.3,3.42,31.51,16.68,57.39,42.74,68.43,53.86C903.09,257.52,914.92,276.22,940.84,317.24Z"></path>
                <path d="M930.62,931.78a15.06,15.06,0,0,1,11.83,17.69l-.86,4.36-12.88-.42c-4.1-6.23-7.89-12.17-11.42-17.73A15.06,15.06,0,0,1,930.62,931.78Z"></path>
                <path d="M941.59,953.83l-1.69,8.48a9.38,9.38,0,0,1-8.15-4.2c-1-1.58-2.07-3.16-3-4.7Z"></path>
                <path d="M939.9,962.31l-.57,2.71-13.44-.41a5.64,5.64,0,0,1-5.45-5.83,5.46,5.46,0,0,1,5.79-5.44l2.48.07c1,1.54,2,3.12,3,4.7A9.38,9.38,0,0,0,939.9,962.31Z"></path>
                <path d="M939.33,965l-5.59,28.09a15,15,0,0,1-.57,2l-12.09-.37a15.09,15.09,0,0,0-16.38-9.58L913,943.61a15.12,15.12,0,0,1,4.32-7.93c3.53,5.56,7.32,11.5,11.42,17.73l-2.48-.07a5.46,5.46,0,0,0-5.79,5.44,5.64,5.64,0,0,0,5.45,5.83Z"></path>
                <path d="M921.08,994.77l12.09.37a14.81,14.81,0,0,1-12,9.88l.12-.3A14.63,14.63,0,0,0,921.08,994.77Z"></path>
                <path d="M921.08,994.77a14.63,14.63,0,0,1,.23,10l-.12.3a10.65,10.65,0,0,1-2.18.19,16.33,16.33,0,0,1-2.92-.26,15.1,15.1,0,0,1-10.26-7.55,5.71,5.71,0,0,1,5-3H911Z"></path>
                <path d="M921.19,1005l-.3,1-10.25-.34a5.64,5.64,0,0,1-5.48-5.78,5.32,5.32,0,0,1,.67-2.48,15.1,15.1,0,0,0,10.26,7.55,16.33,16.33,0,0,0,2.92.26A10.65,10.65,0,0,0,921.19,1005Z"></path>
                <path d="M921.08,994.77l-10.1-.34h-.19a5.71,5.71,0,0,0-5,3,15.18,15.18,0,0,1-1.54-10.15l.41-2.06a15.09,15.09,0,0,1,16.38,9.58Z"></path>
                <path d="M920.89,1006l-56.3,171.46H833l59.79-182.09a15.05,15.05,0,0,1,11.94-10.18l-.41,2.06a15.18,15.18,0,0,0,1.54,10.15,5.32,5.32,0,0,0-.67,2.48,5.64,5.64,0,0,0,5.48,5.78Z"></path>
                <path d="M915.48,333.39c.23.38.45.75.68,1.09-5.75-.15-8.3-1.16-13-3.27-2.36-1.09-14.83-5.67-24.15,9.62-8.79,12.77-3.6,33.54,11.31,75.27.94,2.67,1.8,5.07,2.52,7.14,7.24,20.84,16.75,62.35,6.83,86.43-2.93-2.41-6.12-5.38-7.92-7.07-2.07-1.91-3.87-3.56-5.26-4.73-7.51-6.27-14.73-4.47-17.47-3.38s-9.12,4.51-10.48,14c-.67,4.81-1.54,9.54-2.44,14.58-1.05,5.82-2.1,11.87-2.93,18-.75,5.75-5.52,11.87-11.27,17.16a129.27,129.27,0,0,0,.34-18.44,9.74,9.74,0,0,0-6.61-8.82,10,10,0,0,0-10.82,2.89c-4.62,5.29-12,10.1-21.52,14.08-10.7-4.2-19-4.35-24.64-3.38-.52-24.34-8.18-51-14.76-69.49a10,10,0,0,0-18.85-.3c-7.55,19.72-30.54,38.8-44.7,49.1,17.69-52.25,6.91-92-1.16-111.22a15.1,15.1,0,0,0-10.52-8.87,14.84,14.84,0,0,0-13.26,3.38,126.69,126.69,0,0,0-42.78,90.11,5.63,5.63,0,0,1-1.84,4,5.31,5.31,0,0,1-3.76,1.36c-16.45-.83-56.41-5.56-71.89-31.14a12.61,12.61,0,0,0-10.77-6.16h-.08a12.22,12.22,0,0,0-10.44,5.86c-1.77,2.82-3.42,5.71-5,8.6a165.36,165.36,0,0,0-18.67,62.2,5.36,5.36,0,0,1-6,4.73,186,186,0,0,1-19.95-3.9,181,181,0,0,1-36.62-13.64,16.37,16.37,0,0,0-14.2-.22,16.2,16.2,0,0,0-8.94,10.81,94.53,94.53,0,0,0,3.5,57.36,1.28,1.28,0,0,1-.27,1.43,1.23,1.23,0,0,1-1.35.37l-2.06-.64c-8.72-2.59-18.56-5.55-31.7-17.84a515.31,515.31,0,0,1-47.4-50.59,4.7,4.7,0,0,0-1.32-1.13,0,0,0,0,0,0,0,21.16,21.16,0,0,0-7.73-6,51.34,51.34,0,0,1-6.5-3.61c-26.52-17.58-37.26-64.6-29.41-129,7-57.43,32.34-107.76,71.44-141.72,63.44-55.1,160.6-66.29,247.59-28.55a21.27,21.27,0,0,0,16.15.42c24-9,107.42-35.54,175.93.67,27.46,14.54,51.05,38.32,61.15,48.5C879.46,276.34,892.23,296.58,915.48,333.39Z"
                      class="cls-5"></path>
                <path d="M918.86,780.86c-2.55,5-6.94,7.55-10,9.27,0,0-.07,0-.11.08-1-.19-1.95-.41-3-.64a5.57,5.57,0,0,1-4.28-6.69,5.76,5.76,0,0,1,1.31-2.55,5.7,5.7,0,0,1,5.38-1.76C912.18,779.43,915.71,780.18,918.86,780.86Z"></path>
                <path d="M864.59,1177.46l-3.23,9.84a15.05,15.05,0,0,1-14.27,10.37,15.5,15.5,0,0,1-4.7-.75,15,15,0,0,1-9.58-19l.16-.49Z"></path>
                <path d="M847.09,1197.67V1200H763.7v-6a15,15,0,0,0,14.92-16.49H833l-.16.49a15,15,0,0,0,9.58,19A15.5,15.5,0,0,0,847.09,1197.67Z"></path>
                <path d="M840.18,573.07a15,15,0,0,1,1.8,21.15c-.45.56-1,1.24-1.62,2.06h0c-1.39.83-2.44,1.39-3,1.65a15,15,0,0,1-17.2-24.3,18.26,18.26,0,0,1,1.65-1.31,0,0,0,0,1,0,0c1.57,1.31,3.23,2.7,4.88,4.17a1.92,1.92,0,0,0,.34.26c-.15.57-.3,1.17-.49,1.73a5.63,5.63,0,0,0,10.78,3.27c.94-3,1.73-6.09,2.33-9A2.67,2.67,0,0,1,840.18,573.07Z"></path>
                <path d="M842.24,539.75a129.27,129.27,0,0,1-.34,18.44,88.24,88.24,0,0,1-9.91,7.89c-.75-.64-1.47-1.27-2.18-1.84a113.37,113.37,0,0,0,1.31-20.69A64.2,64.2,0,0,1,816,554.33a84.62,84.62,0,0,0-12.74-6.43c9.51-4,16.9-8.79,21.52-14.08a10,10,0,0,1,10.82-2.89A9.74,9.74,0,0,1,842.24,539.75Z"></path>
                <path d="M832,566.08a88.24,88.24,0,0,0,9.91-7.89,112.16,112.16,0,0,1-2.21,14.5,15.34,15.34,0,0,0-3.87-2.18,5,5,0,0,0-1.58-2.47C833.49,567.36,832.74,566.72,832,566.08Z"></path>
                <path d="M839.69,572.69c-.6,2.93-1.39,6-2.33,9a5.63,5.63,0,0,1-10.78-3.27c.19-.56.34-1.16.49-1.73a5.51,5.51,0,0,0,3.42,1.17,5.61,5.61,0,0,0,4.2-1.88,5.49,5.49,0,0,0,1.13-5.49A15.34,15.34,0,0,1,839.69,572.69Z"></path>
                <path d="M837.36,597.93c.53-.26,1.58-.82,3-1.65-4.85,6.42-14.13,20.66-14.76,31.37-.72,11.71-1,21.71-1.36,31.36-1.09,32.94-1.87,56.79-15.92,99.54-5.6,17.05-12.1,29.56-18.41,41.69-2,3.72-3.94,7.36-5.89,10.85a103.65,103.65,0,0,1-90,52.51,101.14,101.14,0,0,1-24.49-3l-58.25-14.42,3.91-14.09a15.06,15.06,0,0,0-10.22-18.44l71.78,17.8a73.32,73.32,0,0,0,81.09-35.12c1.84-3.23,3.64-6.57,5.41-10,6-11.53,11.72-22.46,16.52-37.15,12.74-38.69,13.41-59.57,14.46-91.2.19-5.33.34-11.08.6-17.27a103,103,0,0,0,17.39-3.57A5.63,5.63,0,1,0,809,626.33a93,93,0,0,1-13.67,2.93c.07-1.09.11-2.22.19-3.34.52-8.64,3.34-17.28,6.91-24.94a59.91,59.91,0,0,1,8.75,7.77,5.65,5.65,0,0,0,8.22-7.74,73,73,0,0,0-11.68-10.1,129.54,129.54,0,0,1,11.23-16,12.57,12.57,0,0,1,1.17-1.24,15,15,0,0,0,17.2,24.3Z"></path>
                <path d="M835.82,570.51a5.49,5.49,0,0,1-1.13,5.49,5.61,5.61,0,0,1-4.2,1.88,5.51,5.51,0,0,1-3.42-1.17q1.06-3.6,1.8-7.1A15.22,15.22,0,0,1,835.82,570.51Z"></path>
                <path d="M834.24,568a5,5,0,0,1,1.58,2.47,15.22,15.22,0,0,0-7-.9c.11-.56.23-1.12.3-1.69.9-.52,1.88-1.16,2.82-1.84C832.74,566.72,833.49,567.36,834.24,568Z"></path>
                <path d="M831.12,543.55a113.37,113.37,0,0,1-1.31,20.69A120.46,120.46,0,0,0,816,554.33,64.2,64.2,0,0,0,831.12,543.55Z"
                      class="cls-3"></path>
                <path d="M829.81,564.24c.71.57,1.43,1.2,2.18,1.84-.94.68-1.92,1.32-2.82,1.84C829.43,566.68,829.66,565.44,829.81,564.24Z"></path>
                <path d="M829.81,564.24c-.15,1.2-.38,2.44-.64,3.68-1.8,1.2-3.45,2.18-4.92,3a5.28,5.28,0,0,0-.67.34,11.4,11.4,0,0,0-1.73,1h0a90.67,90.67,0,0,0-18.74-12.17,104.75,104.75,0,0,0,13-5.78A120.46,120.46,0,0,1,829.81,564.24Z"></path>
                <path d="M829.17,567.92c-.07.57-.19,1.13-.3,1.69a15.37,15.37,0,0,0-4.62,1.28C825.72,570.1,827.37,569.12,829.17,567.92Z"></path>
                <path d="M828.87,569.61q-.74,3.5-1.8,7.1a1.92,1.92,0,0,1-.34-.26c-1.65-1.47-3.31-2.86-4.88-4.17a16.88,16.88,0,0,1,1.73-1,5.28,5.28,0,0,1,.67-.34A15.37,15.37,0,0,1,828.87,569.61Z"></path>
                <path d="M823.58,571.23a16.88,16.88,0,0,0-1.73,1A11.4,11.4,0,0,1,823.58,571.23Z"></path>
                <path d="M821.85,572.28a0,0,0,0,0,0,0v0Z"></path>
                <path d="M821.81,572.28v0a13.3,13.3,0,0,0-2.82,2.55,129.54,129.54,0,0,0-11.23,16c-13.48-9.31-28.62-12.47-41.8-8.26-12.47,4-19.27,13.26-21.82,16.79-21.83,29.9-4.29,72.23-.57,80.38a5.7,5.7,0,0,0,7.48,2.81,5.68,5.68,0,0,0,2.78-7.47c-2-4.39-19.08-43.72-.57-69.11a37.88,37.88,0,0,1,9.32-9.39,9.09,9.09,0,0,0-.64,1.24c-5.86,11.3-4.73,22.87,1.43,27.83a3.56,3.56,0,0,0,.41.3,26.79,26.79,0,0,1-4.28-2.29,5.63,5.63,0,0,0-6.65,9.09c.6.45,11.72,8.45,32.38,8.45a88.21,88.21,0,0,0,9.57-.56c-.26,6.19-.41,11.94-.6,17.27-1.05,31.63-1.72,52.51-14.46,91.2-4.8,14.69-10.51,25.62-16.52,37.15-1.77,3.42-3.57,6.76-5.41,10a73.32,73.32,0,0,1-81.09,35.12l-71.78-17.8c-.08,0-.19,0-.26-.08a1.33,1.33,0,0,0-.38-.07,7.94,7.94,0,0,0-1.84-.34,14.62,14.62,0,0,0-5.41.3.13.13,0,0,0-.11,0,10.52,10.52,0,0,0-1.2.37,8.86,8.86,0,0,0-1.13.45,5.49,5.49,0,0,0-1.09.53,10.14,10.14,0,0,0-1,.64,13.11,13.11,0,0,0-2,1.5,10.08,10.08,0,0,0-.87.86,13.11,13.11,0,0,0-1.12,1.39h0l-31.21-7.73a5.63,5.63,0,0,0-2.71,10.93l30,7.43L573.73,869a230.52,230.52,0,0,0-104-44l-41.84-6.5-.11-.52v0a14.08,14.08,0,0,0,.6-3.76L431,708.66a57.64,57.64,0,0,0-62.46-58.82l-8.83.75a16,16,0,0,1-17-12.16l-12.05-49.17a28.51,28.51,0,0,1,6.08-25.36l6.54-7.62a22.25,22.25,0,0,0,3.94-6.61,523.59,523.59,0,0,0,37.64,39c15.06,14,26.78,17.54,36.17,20.39l2,.6A12.62,12.62,0,0,0,438.47,593a85,85,0,0,1-5.63-30.08,83.67,83.67,0,0,1,2.55-20.47,4.88,4.88,0,0,1,2.75-3.35,5.24,5.24,0,0,1,4.43.08,192.22,192.22,0,0,0,60,18.63,16.81,16.81,0,0,0,12.58-3.42A16.32,16.32,0,0,0,521.44,543a154.88,154.88,0,0,1,17.36-58c1.46-2.7,3-5.41,4.62-8a1.38,1.38,0,0,1,.9-.52,1.43,1.43,0,0,1,1.2.71c17.58,29.11,58.25,35.42,80.9,36.59a15.74,15.74,0,0,0,2.29-.08l.91,7.36c-17.77,2.22-40.46,7.74-69.11,18.9a5.64,5.64,0,0,0,2.06,10.89,5.41,5.41,0,0,0,2-.38c88.34-34.37,114.22-12.84,114.82-12.32a5.65,5.65,0,0,0,8.64-7.17l1.5-.79a10.9,10.9,0,0,0,3.19,3.79,10.48,10.48,0,0,0,12.55.12c17.43-12.47,39.66-31.48,49-52.4,5.45,15.92,13.41,43.31,13.11,66.78a13.57,13.57,0,0,0,.15,2.14,5.56,5.56,0,0,0,.68,4.58,6.07,6.07,0,0,0,1.2,1.36,15.57,15.57,0,0,0,4.25,5,16.74,16.74,0,0,0,14.49,3.08,147.57,147.57,0,0,0,14.88-4.62A90.67,90.67,0,0,1,821.81,572.28ZM732,750.43a5.58,5.58,0,0,0-5.14-6c-34-2.66-60.81-11.83-79.74-27.23l-1.77-1.46c-7.4-6.16-19.83-16.49-33.58-13.11-11.57,2.82-18.81,13.78-20.66,22.8-4.09,19.91,15.07,37.6,27.05,44.88a60.54,60.54,0,0,0,32,8.64c19.75,0,36.73-8,41.27-10.29a5.66,5.66,0,0,0-1.8-10.63l1.95-7.77A212.31,212.31,0,0,0,726,755.62,5.64,5.64,0,0,0,732,750.43Zm-56.41-152a5.68,5.68,0,0,0,3.72-7.06c-.27-.79-6.13-19.16-25.62-26.56a51,51,0,0,0-24.79-2.48c-13.07,1.69-27.83,7.52-44.1,17.39a5.63,5.63,0,0,0,5.86,9.62,141.84,141.84,0,0,1,18.82-9.8c-.22.26-.37.56-.56.82-.6,1.84-5.37,17.77,3.75,29.64a61.11,61.11,0,0,1-14.57-7,5.62,5.62,0,1,0-6.68,9c.93.71,20.13,14.68,53.52,14.68a128.87,128.87,0,0,0,24.15-2.33,5.64,5.64,0,1,0-2.1-11.08,112.3,112.3,0,0,1-24.94,2,32,32,0,0,0,4.24-3.6c11-10.75,8-26.86,7.51-29.11a30.42,30.42,0,0,0-3.57-7,32.91,32.91,0,0,1,18.3,19.12,5.65,5.65,0,0,0,5.37,4A6.61,6.61,0,0,0,675.63,598.46Z"
                      class="cls-3"></path>
                <path d="M821.81,572.32a18.26,18.26,0,0,0-1.65,1.31A12.47,12.47,0,0,1,821.81,572.32Z"></path>
                <path d="M819.44,601a5.65,5.65,0,0,1-8.22,7.74,59.91,59.91,0,0,0-8.75-7.77,113.71,113.71,0,0,1,5.29-10.07A73,73,0,0,1,819.44,601Z"></path>
                <path d="M816,630.16a5.64,5.64,0,0,1-3.84,7,103,103,0,0,1-17.39,3.57c.15-3.65.34-7.48.57-11.46A93,93,0,0,0,809,626.33,5.64,5.64,0,0,1,816,630.16Z"></path>
                <path d="M816,554.33a104.75,104.75,0,0,1-13,5.78c-7.78-3.72-13.94-4.81-18.37-4.81l0-1.35.67-.15a123.29,123.29,0,0,0,17.88-5.9A84.62,84.62,0,0,1,816,554.33Z"></path>
                <path d="M807.76,590.91A113.71,113.71,0,0,0,802.47,601a46.57,46.57,0,0,0-16.15-7.85,15.4,15.4,0,0,0-12.85-4.29c-6,.91-9.5,5.56-10.89,7.82a37.88,37.88,0,0,0-9.32,9.39c-18.51,25.39-1.42,64.72.57,69.11a5.68,5.68,0,0,1-2.78,7.47,5.7,5.7,0,0,1-7.48-2.81c-3.72-8.15-21.26-50.48.57-80.38,2.55-3.53,9.35-12.81,21.82-16.79C779.14,578.44,794.28,581.6,807.76,590.91Z"></path>
                <path d="M802.47,601c-3.57,7.66-6.39,16.3-6.91,24.94-.08,1.12-.12,2.25-.19,3.34a64.4,64.4,0,0,1-22.39-.45c.57,0,.9,0,1,0,6.76-.64,10.78-5.82,12.36-7.81,6.83-8.87,4.5-20,4-21.94a17.58,17.58,0,0,0-4-5.89A46.57,46.57,0,0,1,802.47,601Z"
                      class="cls-3"></path>
                <path d="M795.37,629.26c-.23,4-.42,7.81-.57,11.46a88.21,88.21,0,0,1-9.57.56c-20.66,0-31.78-8-32.38-8.45a5.63,5.63,0,0,1,6.65-9.09,26.79,26.79,0,0,0,4.28,2.29,15.53,15.53,0,0,0,9.09,2.78.07.07,0,0,0,.11,0A64.4,64.4,0,0,0,795.37,629.26Z"></path>
                <path d="M803.07,560.11a147.57,147.57,0,0,1-14.88,4.62,16.74,16.74,0,0,1-14.49-3.08,15.57,15.57,0,0,1-4.25-5A5.71,5.71,0,0,0,776,557c.07,0,3-1.73,8.71-1.73C789.13,555.3,795.29,556.39,803.07,560.11Z"></path>
                <path d="M790.37,599c.45,2,2.78,13.07-4,21.94-1.58,2-5.6,7.17-12.36,7.81-.08,0-.41,0-1,0a.07.07,0,0,1-.11,0,44,44,0,0,1-9.09-2.78,3.56,3.56,0,0,1-.41-.3c-6.16-5-7.29-16.53-1.43-27.83a9.09,9.09,0,0,1,.64-1.24,27.7,27.7,0,0,1,6.8-3.27,30.78,30.78,0,0,1,16.94-.26A17.58,17.58,0,0,1,790.37,599Zm-11.79,12.47c1.09-5.48-1.13-10.51-5-11.3s-7.85,3-8.94,8.49,1.09,10.51,5,11.27S777.45,616.94,778.58,611.49Z"></path>
                <path d="M803.29,547.9a123.29,123.29,0,0,1-17.88,5.9l-.67.15a5.56,5.56,0,0,1-4.06-1.16,5.2,5.2,0,0,1-2-4.1c0-1.39,0-2.74,0-4.17C784.33,543.55,792.59,543.7,803.29,547.9Z"></path>
                <path d="M784.74,554l0,1.35c-5.71,0-8.64,1.69-8.71,1.73a5.71,5.71,0,0,1-6.54-.41,15.67,15.67,0,0,1-1.88-5.94,5.18,5.18,0,0,1,2.22-3.08,23.7,23.7,0,0,1,8.86-3.08c0,1.43,0,2.78,0,4.17a5.2,5.2,0,0,0,2,4.1A5.56,5.56,0,0,0,784.74,554Z"></path>
                <path d="M786.32,593.13a30.78,30.78,0,0,0-16.94.26,27.7,27.7,0,0,0-6.8,3.27c1.39-2.26,4.88-6.91,10.89-7.82A15.4,15.4,0,0,1,786.32,593.13Z"></path>
                <path d="M773.62,600.19c3.83.79,6,5.82,5,11.3s-5.11,9.24-8.94,8.46-6.09-5.83-5-11.27S769.79,599.4,773.62,600.19Z"
                      class="cls-6"></path>
                <path d="M778.62,1177.46a15,15,0,0,1-27.87,9.13c-1.81-3-3.57-6.08-5.22-9.13Z"></path>
                <path d="M778.62,1177.46H745.53c-39.4-70.31-50.3-133.9-52.14-146.41-.11-1-.22-2-.26-2.89l13.22,4a6,6,0,0,0,1.62.22,5.61,5.61,0,0,0,5.4-4,6,6,0,0,0,.23-1.61l9.5-.79a3.77,3.77,0,0,0,0,.67c1.77,12,12.66,75.61,53.49,144.61A14.64,14.64,0,0,1,778.62,1177.46Z"></path>
                <path d="M778.65,544.52a23.7,23.7,0,0,0-8.86,3.08,5.18,5.18,0,0,0-2.22,3.08,13.57,13.57,0,0,1-.15-2.14c.3-23.47-7.66-50.86-13.11-66.78-9.35,20.92-31.58,39.93-49,52.4a10.48,10.48,0,0,1-12.55-.12,10.9,10.9,0,0,1-3.19-3.79,10.78,10.78,0,0,1-.49-8.3c17.32-49.58,7.25-87.07-.26-105a3.82,3.82,0,0,0-2.67-2.26,3.57,3.57,0,0,0-3.26.87,115.43,115.43,0,0,0-39,82.18,17,17,0,0,1-5.52,11.79,16.14,16.14,0,0,1-9.66,4.21,15.74,15.74,0,0,1-2.29.08c-22.65-1.17-63.32-7.48-80.9-36.59a1.43,1.43,0,0,0-1.2-.71,1.38,1.38,0,0,0-.9.52c-1.62,2.59-3.16,5.3-4.62,8a154.88,154.88,0,0,0-17.36,58,16.32,16.32,0,0,1-6.27,11.38,16.81,16.81,0,0,1-12.58,3.42,192.22,192.22,0,0,1-60-18.63,5.24,5.24,0,0,0-4.43-.08,4.88,4.88,0,0,0-2.75,3.35,83.67,83.67,0,0,0-2.55,20.47A85,85,0,0,0,438.47,593,12.57,12.57,0,0,1,423,609.65l-2-.6c-9.39-2.85-21.11-6.35-36.17-20.39a523.59,523.59,0,0,1-37.64-39,21.83,21.83,0,0,0-3.38-21,4.7,4.7,0,0,1,1.32,1.13,515.31,515.31,0,0,0,47.4,50.59c13.14,12.29,23,15.25,31.7,17.84l2.06.64a1.23,1.23,0,0,0,1.35-.37,1.28,1.28,0,0,0,.27-1.43,94.53,94.53,0,0,1-3.5-57.36,16.2,16.2,0,0,1,8.94-10.81,16.37,16.37,0,0,1,14.2.22,181,181,0,0,0,36.62,13.64,186,186,0,0,0,19.95,3.9,5.36,5.36,0,0,0,6-4.73,165.36,165.36,0,0,1,18.67-62.2c1.54-2.89,3.19-5.78,5-8.6a12.22,12.22,0,0,1,10.44-5.86h.08a12.61,12.61,0,0,1,10.77,6.16C570.61,497,610.57,501.74,627,502.57a5.31,5.31,0,0,0,3.76-1.36,5.63,5.63,0,0,0,1.84-4,126.69,126.69,0,0,1,42.78-90.11,14.84,14.84,0,0,1,13.26-3.38,15.1,15.1,0,0,1,10.52,8.87c8.07,19.19,18.85,59,1.16,111.22,14.16-10.3,37.15-29.38,44.7-49.1a10,10,0,0,1,18.85.3C770.47,493.55,778.13,520.18,778.65,544.52Z"></path>
                <path d="M769.45,556.62a6.07,6.07,0,0,1-1.2-1.36,5.56,5.56,0,0,1-.68-4.58A15.67,15.67,0,0,0,769.45,556.62Z"></path>
                <path d="M763.78,626a44,44,0,0,0,9.09,2.78A15.53,15.53,0,0,1,763.78,626Z"></path>
                <path d="M763.7,1194v6H632.88v-1.88a5.16,5.16,0,0,0,.79,0,9.36,9.36,0,0,0,8.57-10.14c-.3-3.45-.6-7-1-10.48H745.53c1.65,3,3.41,6.09,5.22,9.13A15,15,0,0,0,763.7,1194Z"></path>
                <path d="M745.53,1177.46H641.22C634,1111.43,610,1034.32,609,1030.9a9.39,9.39,0,1,0-17.92,5.6c.26.82,23.93,77,31.29,141H392.5c8.9-69.3,42.82-157.64,43.16-158.58a9.38,9.38,0,1,0-17.51-6.76c-1.54,3.94-35.9,93.45-44.54,165.34h-208c24-76.43,58.71-147.54,103.37-211.54,12.92-18.48,26.85-36.62,41.39-53.94a32.4,32.4,0,0,0,3.79-5.52c37.45,4.47,143,17.88,181.19,29.94,31.78,10,75.08,37.78,98,53.41a168.55,168.55,0,0,0,45.9,22l53.9,16.34c0,.94.15,1.91.26,2.89C695.23,1043.56,706.13,1107.15,745.53,1177.46Z"
                      class="cls-2"></path>
                <path d="M726.9,744.38a5.58,5.58,0,0,1,5.14,6,5.64,5.64,0,0,1-6,5.19,212.31,212.31,0,0,1-34.33-5.41c-20.62-5-37.89-13.15-51.6-24.31l-1.84-1.54c-6.16-5.14-15.48-12.84-23.74-10.85-6.42,1.58-11.12,8.45-12.28,14.12-2.63,12.85,11.64,26.78,21.86,33,25.84,15.77,58.67-.19,62.31-2.07a5.88,5.88,0,0,1,3.34-.6,5.66,5.66,0,0,1,1.8,10.63C687,770.94,670,778.9,650.24,778.9a60.54,60.54,0,0,1-32-8.64c-12-7.28-31.14-25-27.05-44.88,1.85-9,9.09-20,20.66-22.8,13.75-3.38,26.18,6.95,33.58,13.11l1.77,1.46C666.09,732.55,692.9,741.72,726.9,744.38Z"></path>
                <path d="M716,904.55a35.07,35.07,0,0,1,12.77,29.22l-5.67,92v.3l-9.5.79a5.61,5.61,0,0,0-4-5.41l-16.08-4.89,5.26-84.58a5,5,0,0,0-1.8-4.13,4.83,4.83,0,0,0-4.4-.94,123.49,123.49,0,0,1-113.16-26.22L575.3,897a14.85,14.85,0,0,0,5.49,2.82,14.4,14.4,0,0,0,4,.56,15,15,0,0,0,14.46-11l2.55-9.2a93.3,93.3,0,0,0,83,17.65A35.07,35.07,0,0,1,716,904.55Z"></path>
                <path d="M713.6,1026.81a6,6,0,0,1-.23,1.61,5.61,5.61,0,0,1-5.4,4,6,6,0,0,1-1.62-.22l-13.22-4a34,34,0,0,1,0-4.28l.45-7.37,16.08,4.89A5.61,5.61,0,0,1,713.6,1026.81Z"></path>
                <path d="M697,927.8a5,5,0,0,1,1.8,4.13l-5.26,84.58-51-15.51a155.39,155.39,0,0,1-42.82-20.51c-23.47-16-67.83-44.36-101-54.84-38.69-12.2-140.51-25.24-180.48-30l20.55-65.77a4.86,4.86,0,0,1,5.45-3.38L411,836.78a15,15,0,0,0,15.21-7.13L468,836.11a219.1,219.1,0,0,1,102.46,44.66l-.15.6a5.87,5.87,0,0,0-.19.83,6.22,6.22,0,0,0-.15.75,6.07,6.07,0,0,0-.11,1.12,14.3,14.3,0,0,0,.64,5.94,9.53,9.53,0,0,0,.71,1.76,8.21,8.21,0,0,0,.6,1.13,9,9,0,0,0,.79,1.24,12.27,12.27,0,0,0,1.13,1.39,16.43,16.43,0,0,0,1.2,1.16l.37.34,4.14,3.61A123.49,123.49,0,0,0,692.6,926.86,4.83,4.83,0,0,1,697,927.8Z"
                      class="cls-4"></path>
                <path d="M693.54,1016.51l-.45,7.37a34,34,0,0,0,0,4.28l-53.9-16.34a168.55,168.55,0,0,1-45.9-22c-23-15.63-66.25-43.38-98-53.41-38.16-12.06-143.74-25.47-181.19-29.94a33.57,33.57,0,0,0,2.78-6.5l1.35-4.35c40,4.8,141.79,17.84,180.48,30,33.13,10.48,77.49,38.88,101,54.84A155.39,155.39,0,0,0,642.5,1001Z"></path>
                <path d="M691.66,750.21,689.71,758a5.88,5.88,0,0,0-3.34.6c-3.64,1.88-36.47,17.84-62.31,2.07-10.22-6.24-24.49-20.17-21.86-33,1.16-5.67,5.86-12.54,12.28-14.12,8.26-2,17.58,5.71,23.74,10.85l1.84,1.54C653.77,737.06,671,745.21,691.66,750.21Z"
                      class="cls-7"></path>
                <path d="M688.81,417c7.51,17.91,17.58,55.4.26,105a10.78,10.78,0,0,0,.49,8.3l-1.5.79a6.07,6.07,0,0,0-.75-.87c-.83-.82-15.18-14.42-57.69-9l-.91-7.36a16.14,16.14,0,0,0,9.66-4.21,17,17,0,0,0,5.52-11.79,115.43,115.43,0,0,1,39-82.18,3.57,3.57,0,0,1,3.26-.87A3.82,3.82,0,0,1,688.81,417Z"
                      class="cls-3"></path>
                <path d="M688.06,531a5.65,5.65,0,0,1-8.64,7.17c-.6-.52-26.48-22.05-114.82,12.32a5.41,5.41,0,0,1-2,.38A5.64,5.64,0,0,1,560.51,540c28.65-11.16,51.34-16.68,69.11-18.9,42.51-5.37,56.86,8.23,57.69,9A6.07,6.07,0,0,1,688.06,531Z"></path>
                <path d="M679.35,591.4a5.68,5.68,0,0,1-3.72,7.06,6.61,6.61,0,0,1-1.69.23,5.65,5.65,0,0,1-5.37-4,32.91,32.91,0,0,0-18.3-19.12,21,21,0,0,0-20.8-9.16l-.53-4.1a51,51,0,0,1,24.79,2.48C673.22,572.24,679.08,590.61,679.35,591.4Z"></path>
                <path d="M673.64,617.8a5.67,5.67,0,0,1-4.51,6.61A128.87,128.87,0,0,1,645,626.74c-33.39,0-52.59-14-53.52-14.68a5.62,5.62,0,1,1,6.68-9,61.11,61.11,0,0,0,14.57,7,11.87,11.87,0,0,0,1.21,1.5c1.57,1.77,6.31,7,13.78,7.93a20.62,20.62,0,0,0,14.39-4.1,112.3,112.3,0,0,0,24.94-2A5.67,5.67,0,0,1,673.64,617.8Z"></path>
                <path d="M653.84,582.65c.45,2.25,3.46,18.36-7.51,29.11a32,32,0,0,1-4.24,3.6A95.75,95.75,0,0,1,612.71,610c-9.12-11.87-4.35-27.8-3.75-29.64.19-.26.34-.56.56-.82,15.89-6.69,29.52-8.19,40-4.25a4.59,4.59,0,0,1,.71.3A30.42,30.42,0,0,1,653.84,582.65Zm-16.67,16.94c1.12-7.25-2.07-13.79-7.14-14.58s-10.18,4.4-11.34,11.65,2.06,13.78,7.17,14.57S636,606.84,637.17,599.59Z"></path>
                <path d="M650.27,575.62a4.59,4.59,0,0,0-.71-.3c-10.52-3.94-24.15-2.44-40,4.25a29.51,29.51,0,0,1,20-13.11,21,21,0,0,1,20.8,9.16Z"></path>
                <path d="M642.24,1187.94a9.36,9.36,0,0,1-8.57,10.14,5.16,5.16,0,0,1-.79,0,9.4,9.4,0,0,1-9.35-8.6c-.34-3.94-.71-8-1.2-12.06h18.89C641.64,1181,641.94,1184.49,642.24,1187.94Z"></path>
                <path d="M641.22,1177.46H622.33c-7.36-64-31-140.14-31.29-141a9.39,9.39,0,1,1,17.92-5.6C610,1034.32,634,1111.43,641.22,1177.46Z"></path>
                <path d="M630,585c5.07.79,8.26,7.33,7.14,14.58s-6.24,12.47-11.31,11.64-8.3-7.32-7.17-14.57S624.92,584.19,630,585Z"
                      class="cls-6"></path>
                <path d="M632.88,1198.12V1200h-251v-1.88a9.38,9.38,0,0,0,9.36-8.6c.33-3.94.78-8,1.31-12.06H622.33c.49,4.1.86,8.12,1.2,12.06A9.4,9.4,0,0,0,632.88,1198.12Z"></path>
                <path d="M642.09,615.36a20.62,20.62,0,0,1-14.39,4.1c-7.47-.9-12.21-6.16-13.78-7.93a11.87,11.87,0,0,1-1.21-1.5A95.75,95.75,0,0,0,642.09,615.36Z"></path>
                <path d="M628.94,562.36l.53,4.1a29.51,29.51,0,0,0-20,13.11,141.84,141.84,0,0,0-18.82,9.8,5.63,5.63,0,0,1-5.86-9.62C601.11,569.88,615.87,564.05,628.94,562.36Z"></path>
                <path d="M604.94,813.65a15.06,15.06,0,0,1,10.22,18.44l-3.91,14.09-14.2-3.54a15,15,0,0,1-11.23-12.47l9,2.26a5.63,5.63,0,1,0,2.71-10.93l-9.05-2.26a13.11,13.11,0,0,1,1.12-1.39,10.08,10.08,0,0,1,.87-.86,13.11,13.11,0,0,1,2-1.5,10.14,10.14,0,0,1,1-.64,9.17,9.17,0,0,1,1.09-.53,8.86,8.86,0,0,1,1.13-.45c.41-.15.79-.26,1.2-.37a.13.13,0,0,1,.11,0,15.29,15.29,0,0,1,5.41-.3,14.85,14.85,0,0,1,1.84.34,1.33,1.33,0,0,1,.38.07C604.75,813.61,604.86,813.61,604.94,813.65Z"></path>
                <path d="M611.25,846.18l-9.43,34c-.9-.68-1.76-1.43-2.63-2.18l-4.54-3.94a15,15,0,0,0-16.94-1.88c-1.32-1.13-2.63-2.14-4-3.16l10.85-39.14,1.24.3a15,15,0,0,0,11.23,12.47Z"></path>
                <path d="M604.3,813.5a14.85,14.85,0,0,0-1.84-.34A7.94,7.94,0,0,1,604.3,813.5Z"></path>
                <path d="M602.46,813.16a15.29,15.29,0,0,0-5.41.3A14.62,14.62,0,0,1,602.46,813.16Z"></path>
                <path d="M597.58,821.5a5.63,5.63,0,0,1-2.71,10.93l-9-2.26a14.18,14.18,0,0,1,.26-5.71l.12-.41a4.92,4.92,0,0,1,.26-.82,6,6,0,0,1,.38-1,13.28,13.28,0,0,1,1.31-2.44,2.55,2.55,0,0,1,.38-.53Z"></path>
                <path d="M601.82,880.17l-2.55,9.2a15,15,0,0,1-14.46,11,14.4,14.4,0,0,1-4-.56A14.85,14.85,0,0,1,575.3,897l-.37-.34a16.43,16.43,0,0,1-1.2-1.16,12.27,12.27,0,0,1-1.13-1.39,7.08,7.08,0,0,1-.79-1.24c-.22-.37-.41-.75-.6-1.13a9.53,9.53,0,0,1-.71-1.76,13.78,13.78,0,0,1-.64-5.94A10.61,10.61,0,0,1,570,883a6.22,6.22,0,0,1,.15-.75c.11-.45.23-.94.38-1.39,2.81,2.18,5.59,4.47,8.3,6.83a5.57,5.57,0,0,0,3.72,1.39,5.69,5.69,0,0,0,4.24-1.95,5.61,5.61,0,0,0-.56-7.93c-2.78-2.44-5.6-4.77-8.49-7a15,15,0,0,1,16.94,1.88l4.54,3.94C600.06,878.74,600.92,879.49,601.82,880.17Z"></path>
                <path d="M596.94,813.5c-.41.11-.79.22-1.2.37A10.52,10.52,0,0,1,596.94,813.5Z"></path>
                <path d="M594.61,814.32a9.17,9.17,0,0,0-1.09.53A5.49,5.49,0,0,1,594.61,814.32Z"></path>
                <path d="M593.52,814.85a10.14,10.14,0,0,0-1,.64A10.14,10.14,0,0,1,593.52,814.85Z"></path>
                <path d="M590.52,817a10.08,10.08,0,0,0-.87.86A10.08,10.08,0,0,1,590.52,817Z"></path>
                <path d="M588.53,819.24a2.55,2.55,0,0,0-.38.53c.11-.19.23-.34.34-.53Z"></path>
                <path d="M557.28,811.51l31.21,7.73c-.11.19-.23.34-.34.53a13.28,13.28,0,0,0-1.31,2.44,10.54,10.54,0,0,0-.38,1,4.92,4.92,0,0,0-.26.82l-.12.41-1.5,5.41-30-7.43a5.63,5.63,0,0,1,2.71-10.93Z"></path>
                <path d="M586.2,879.15a5.61,5.61,0,0,1,.56,7.93,5.69,5.69,0,0,1-4.24,1.95,5.57,5.57,0,0,1-3.72-1.39c-2.71-2.36-5.49-4.65-8.3-6.83a14.85,14.85,0,0,1,3-5.3,13.78,13.78,0,0,1,4.25-3.34C580.6,874.38,583.42,876.71,586.2,879.15Z"></path>
                <path d="M586.84,822.21a6,6,0,0,0-.38,1A10.54,10.54,0,0,1,586.84,822.21Z"></path>
                <path d="M584.58,829.87l1.5-5.41a14.18,14.18,0,0,0-.26,5.71Z"></path>
                <path d="M573.73,869c1.35,1,2.66,2,4,3.16a13.78,13.78,0,0,0-4.25,3.34,14.85,14.85,0,0,0-3,5.3l0,0Z"></path>
                <path d="M573.73,895.53a16.43,16.43,0,0,0,1.2,1.16A16.43,16.43,0,0,1,573.73,895.53Z"></path>
                <path d="M573.73,869l-3.27,11.76A219.1,219.1,0,0,0,468,836.11l-41.81-6.46a15.32,15.32,0,0,0,1.92-5.37,15,15,0,0,0-.23-5.79l41.84,6.5A230.52,230.52,0,0,1,573.73,869Z"></path>
                <path d="M571.81,892.9a7.08,7.08,0,0,0,.79,1.24A9,9,0,0,1,571.81,892.9Z"></path>
                <path d="M571.21,891.77c.19.38.38.76.6,1.13A8.21,8.21,0,0,1,571.21,891.77Z"></path>
                <path d="M570.46,880.77l0,0c-.15.45-.27.94-.38,1.39a5.87,5.87,0,0,1,.19-.83Z"></path>
                <path d="M570,883a10.61,10.61,0,0,0-.11,1.12A6.07,6.07,0,0,1,570,883Z"></path>
                <path d="M569.86,884.07a13.78,13.78,0,0,0,.64,5.94A14.3,14.3,0,0,1,569.86,884.07Z"></path>
                <path d="M430.29,1006.71a9.42,9.42,0,0,1,5.37,12.17c-.34.94-34.26,89.28-43.16,158.58H373.61c8.64-71.89,43-161.4,44.54-165.34A9.42,9.42,0,0,1,430.29,1006.71Z"></path>
                <path d="M427.88,818.49a15,15,0,0,1,.23,5.79,15.32,15.32,0,0,1-1.92,5.37l-5.22-.83a5.07,5.07,0,0,1-2.37-.94,15.16,15.16,0,0,0,9-9.42Z"></path>
                <path d="M427.77,818l.11.52-.26,0A3.4,3.4,0,0,0,427.77,818Z"></path>
                <path d="M427.77,817.93v0a3.4,3.4,0,0,1-.15.49l-4.92-.76a5.64,5.64,0,0,0-4.1,10.18,15.31,15.31,0,0,1-5.25.94H413a15,15,0,0,1-14.65-15.4l.23-8.94,17,2.63A15.08,15.08,0,0,1,427.77,817.93Z"></path>
                <path d="M422.7,817.7l4.92.76a15.16,15.16,0,0,1-9,9.42,5.64,5.64,0,0,1,4.1-10.18Z"></path>
                <path d="M421,828.82l5.22.83A15,15,0,0,1,411,836.78l-66.74-10.32a4.86,4.86,0,0,0-5.45,3.38l-20.55,65.77c-9.16-1.13-15.09-1.81-16.22-1.92a5.59,5.59,0,0,0-5.64,3l-9.05-4a4.4,4.4,0,0,0,.9-1.62l21.86-70.12a34.79,34.79,0,0,1,38.73-24.16l49.73,7.74-.23,8.94A15,15,0,0,0,413,828.82h.38a15.31,15.31,0,0,0,5.25-.94A5.07,5.07,0,0,0,421,828.82Z"></path>
                <path d="M373.61,1177.46H392.5c-.53,4.1-1,8.12-1.31,12.06a9.38,9.38,0,0,1-9.36,8.6,5.29,5.29,0,0,1-.79,0,9.38,9.38,0,0,1-8.56-10.14C372.78,1184.49,373.16,1181,373.61,1177.46Z"></path>
                <path d="M381.83,1198.12V1200H156.4a14.83,14.83,0,0,0,4.47-7c1.5-5.19,3.08-10.37,4.69-15.52H373.61c-.45,3.57-.83,7-1.13,10.48a9.38,9.38,0,0,0,8.56,10.14A5.29,5.29,0,0,0,381.83,1198.12Z"></path>
                <path d="M348.07,537.61a21.93,21.93,0,0,1-.83,12.06c-3.64-4.17-7.25-8.42-10.78-12.73a5.66,5.66,0,0,1,.79-7.93,5.6,5.6,0,0,1,6.57-.38,0,0,0,0,1,0,0A21.73,21.73,0,0,1,348.07,537.61Z"></path>
                <path d="M318.24,895.61,316.89,900a33.57,33.57,0,0,1-2.78,6.5c-8.18-1-13.11-1.54-13.37-1.58a5.67,5.67,0,0,1-5-6.23,5.92,5.92,0,0,1,.6-2,5.59,5.59,0,0,1,5.64-3C303.15,893.8,309.08,894.48,318.24,895.61Z"></path>
                <path d="M314.11,906.46a32.4,32.4,0,0,1-3.79,5.52c-14.54,17.32-28.47,35.46-41.39,53.94-44.66,64-79.4,135.11-103.37,211.54H134.13c25-82.74,62-159.67,110.16-228.71,13.45-19.23,27.91-38.12,43-56.11l9.05,4a5.92,5.92,0,0,0-.6,2,5.67,5.67,0,0,0,5,6.23C301,904.92,305.93,905.48,314.11,906.46Z"></path>
                <path d="M248.8,860.3a5.61,5.61,0,0,1-5.49,5.75h-.15a5.59,5.59,0,0,1-5.59-5.53c-.27-11-3-32.34-19.08-51.72a86,86,0,0,0-6.5-7c2.29-3.12,4.43-6.31,6.35-9.51a100.06,100.06,0,0,1,8.82,9.32C245.38,823.64,248.53,847.83,248.8,860.3Z"
                      class="cls-2"></path>
                <path d="M248.8,251.06c.45,19.34-23.82,48.3-55.85,56.6a80.42,80.42,0,0,1-20,2.52c-31,0-62-17.28-77.42-45-28.32-51,13.38-103.78,15.14-106,28.55-35.42,78.61-49,127.55-34.55A5.64,5.64,0,0,1,235,135.45c-44.54-13.15-89.92-1.06-115.57,30.8-1.58,2-38.76,49-14.08,93.45,16.33,29.41,52.77,45.33,84.77,37,27.94-7.25,47.74-32.15,47.4-45.41a16.6,16.6,0,0,0-6.24-13c-16-13.52-57.95-10.93-72.75-8.78a5.64,5.64,0,0,1-1.61-11.16c2.36-.34,58.51-8.19,81.65,11.34A27.73,27.73,0,0,1,248.8,251.06Z"
                      class="cls-2"></path>
                <path d="M224.12,708.21c8.75,14,15.85,38,.07,73a105.15,105.15,0,0,1-5.85,11.08,101.64,101.64,0,0,0-8.83-7.17,89.19,89.19,0,0,0,4.43-8.53c10.86-24.15,11.08-45.71.64-62.39-.53-.86-13.48-21.18-36.32-24.26a44.35,44.35,0,0,0-5.86-.38c-30,0-58.67,30.24-65.43,60l-5.45-1.24h0L96,747.28c0-.08,0-.12,0-.19,7.78-34.14,40.15-68.81,76.25-68.81a57.92,57.92,0,0,1,7.51.52C207.33,682.52,222.5,705.62,224.12,708.21Z"
                      class="cls-2"></path>
                <path d="M214.58,714.22c10.44,16.68,10.22,38.24-.64,62.39a89.19,89.19,0,0,1-4.43,8.53,99.75,99.75,0,0,0-46.73-17.54,5.62,5.62,0,1,0-1.12,11.19,87.47,87.47,0,0,1,41.58,15.74c-16.64,22.39-43.76,41.35-66.75,32.94C115.83,819.92,105,793.1,105,767.67a81.67,81.67,0,0,1,2-18.06c6.76-29.79,35.42-60,65.43-60a44.35,44.35,0,0,1,5.86.38C201.1,693,214.05,713.36,214.58,714.22Z"
                      class="cls-1"></path>
                <path d="M218.34,792.31c-1.92,3.2-4.06,6.39-6.35,9.51a81.23,81.23,0,0,0-8.75-7.29,95.26,95.26,0,0,0,6.27-9.39A101.64,101.64,0,0,1,218.34,792.31Z"
                      class="cls-2"></path>
                <path d="M203.24,794.53a81.23,81.23,0,0,1,8.75,7.29c-15.55,20.88-39.25,39-63.4,39a45.61,45.61,0,0,1-16-2.82C101,826.49,88.15,781.83,96,747.28l5.52,1.09h0l5.45,1.24a81.67,81.67,0,0,0-2,18.06c0,25.43,10.81,52.25,31.47,59.8C159.48,835.88,186.6,816.92,203.24,794.53Z"
                      class="cls-2"></path>
                <path d="M209.51,785.14a95.26,95.26,0,0,1-6.27,9.39,87.47,87.47,0,0,0-41.58-15.74,5.62,5.62,0,1,1,1.12-11.19A99.75,99.75,0,0,1,209.51,785.14Z"
                      class="cls-2"></path>
                <path d="M134.13,1177.46h31.43c-1.61,5.15-3.19,10.33-4.69,15.52a14.83,14.83,0,0,1-4.47,7H136.53a15,15,0,0,1-4.51-15.47C132.7,1182.16,133.41,1179.83,134.13,1177.46Z"></path>
            </g>
            <path d="M497.19,943.46a226.51,226.51,0,0,0-7.28,44.06c-1.4,22.15,1.37,31.67-2,51.75-2.85,16.81-7.86,28.17-10.21,34.16-7.8,19.87-14.92,53.28-10.6,112.23H537.8c-5.33-39.8-4-69.53-1.62-89.63,2.26-19.42,6.09-35.5,2.87-60.28-1.36-10.44-3.38-17.93-3.2-30.63A119,119,0,0,1,544,964a209.32,209.32,0,0,0-35.34-16.73Q502.79,945.12,497.19,943.46Z"
                  class="cls-4"></path>
            <path d="M590.6,837l-30.29-6.38s-4.34-.89-4.12-6.82c0,0-77.94-40.29-82.64-75.23a361.42,361.42,0,0,0,16.05,56.78,357.64,357.64,0,0,0,14.84,34.23c7.76,2.46,16,5.45,24.49,9.1,14.42,6.16,33.17,15.57,50.53,28.51Z"
                  class="cls-8"></path>
        </g>
    </g>
</svg>